<?xml version="1.0" encoding="UTF-8" standalone="no"?>
<!DOCTYPE svg PUBLIC "-//W3C//DTD SVG 1.1//EN"
 "http://www.w3.org/Graphics/SVG/1.1/DTD/svg11.dtd">
<!-- Generated by graphviz version 2.40.1 (20161225.0304)
 -->
<!-- Title: airway_reservation.migrations Pages: 1 -->
<svg width="480pt" height="195pt"
 viewBox="0.00 0.00 480.00 195.00" xmlns="http://www.w3.org/2000/svg" xmlns:xlink="http://www.w3.org/1999/xlink">
<g id="graph0" class="graph" transform="scale(1 1) rotate(0) translate(4 191)">
<title>airway_reservation.migrations</title>
<polygon fill="#ffffff" stroke="transparent" points="-4,4 -4,-191 476,-191 476,4 -4,4"/>
<!-- airway_reservation.migrations -->
<g id="node1" class="node">
<title>airway_reservation.migrations</title>
<polygon fill="#efefef" stroke="transparent" points="46,-105.5 46,-140.5 426,-140.5 426,-105.5 46,-105.5"/>
<polygon fill="none" stroke="#000000" points="46,-105.5 46,-140.5 426,-140.5 426,-105.5 46,-105.5"/>
<text text-anchor="start" x="52.7095" y="-118.3" font-family="Arial Bold" font-size="18.00" fill="#000000">airway_reservation.migrations</text>
<text text-anchor="start" x="291.7225" y="-118.3" font-family="Arial" font-size="14.00" fill="#000000">    </text>
<text text-anchor="start" x="325.9273" y="-118.3" font-family="Arial" font-size="14.00" fill="#666666">[BASE TABLE]</text>
<polygon fill="none" stroke="#000000" points="46,-75.5 46,-105.5 426,-105.5 426,-75.5 46,-75.5"/>
<text text-anchor="start" x="53" y="-86.9" font-family="Arial" font-size="14.00" fill="#000000">id </text>
<text text-anchor="start" x="67.7798" y="-86.9" font-family="Arial" font-size="14.00" fill="#666666">[text]</text>
<polygon fill="none" stroke="#000000" points="46,-45.5 46,-75.5 426,-75.5 426,-45.5 46,-45.5"/>
<text text-anchor="start" x="53" y="-56.9" font-family="Arial" font-size="14.00" fill="#000000">applied_at </text>
<text text-anchor="start" x="121.4726" y="-56.9" font-family="Arial" font-size="14.00" fill="#666666">[timestamp with time zone]</text>
<polygon fill="none" stroke="#000000" stroke-width="3" points="44.5,-44.5 44.5,-142.5 427.5,-142.5 427.5,-44.5 44.5,-44.5"/>
</g>
</g>
</svg>
