<?xml version="1.0" encoding="UTF-8" standalone="no"?>
<!DOCTYPE svg PUBLIC "-//W3C//DTD SVG 1.1//EN"
 "http://www.w3.org/Graphics/SVG/1.1/DTD/svg11.dtd">
<!-- Generated by graphviz version 2.40.1 (20161225.0304)
 -->
<!-- Title: airway_reservation.airway_reservations Pages: 1 -->
<svg width="872pt" height="1132pt"
 viewBox="0.00 0.00 871.50 1132.00" xmlns="http://www.w3.org/2000/svg" xmlns:xlink="http://www.w3.org/1999/xlink">
<g id="graph0" class="graph" transform="scale(1 1) rotate(0) translate(4 1128)">
<title>airway_reservation.airway_reservations</title>
<polygon fill="#ffffff" stroke="transparent" points="-4,4 -4,-1128 867.5,-1128 867.5,4 -4,4"/>
<!-- airway_reservation.airway_reservations -->
<g id="node1" class="node">
<title>airway_reservation.airway_reservations</title>
<polygon fill="#efefef" stroke="transparent" points="46.5,-1042.5 46.5,-1077.5 503.5,-1077.5 503.5,-1042.5 46.5,-1042.5"/>
<polygon fill="none" stroke="#000000" points="46.5,-1042.5 46.5,-1077.5 503.5,-1077.5 503.5,-1042.5 46.5,-1042.5"/>
<text text-anchor="start" x="53.2039" y="-1055.3" font-family="Arial Bold" font-size="18.00" fill="#000000">airway_reservation.airway_reservations</text>
<text text-anchor="start" x="369.2281" y="-1055.3" font-family="Arial" font-size="14.00" fill="#000000">    </text>
<text text-anchor="start" x="403.4329" y="-1055.3" font-family="Arial" font-size="14.00" fill="#666666">[BASE TABLE]</text>
<polygon fill="none" stroke="#000000" points="46.5,-1012.5 46.5,-1042.5 503.5,-1042.5 503.5,-1012.5 46.5,-1012.5"/>
<text text-anchor="start" x="53.5" y="-1023.9" font-family="Arial" font-size="14.00" fill="#000000">id </text>
<text text-anchor="start" x="68.2798" y="-1023.9" font-family="Arial" font-size="14.00" fill="#666666">[uuid]</text>
<polygon fill="none" stroke="#000000" points="46.5,-982.5 46.5,-1012.5 503.5,-1012.5 503.5,-982.5 46.5,-982.5"/>
<text text-anchor="start" x="53.5" y="-993.9" font-family="Arial" font-size="14.00" fill="#000000">ex_airway_sections </text>
<text text-anchor="start" x="179.5224" y="-993.9" font-family="Arial" font-size="14.00" fill="#666666">[jsonb]</text>
<polygon fill="none" stroke="#000000" points="46.5,-952.5 46.5,-982.5 503.5,-982.5 503.5,-952.5 46.5,-952.5"/>
<text text-anchor="start" x="53.5" y="-963.9" font-family="Arial" font-size="14.00" fill="#000000">accepted_at </text>
<text text-anchor="start" x="133.65" y="-963.9" font-family="Arial" font-size="14.00" fill="#666666">[timestamp(0) with time zone]</text>
<polygon fill="none" stroke="#000000" points="46.5,-922.5 46.5,-952.5 503.5,-952.5 503.5,-922.5 46.5,-922.5"/>
<text text-anchor="start" x="53.5" y="-933.9" font-family="Arial" font-size="14.00" fill="#000000">reserved_by </text>
<text text-anchor="start" x="134.4074" y="-933.9" font-family="Arial" font-size="14.00" fill="#666666">[uuid]</text>
<polygon fill="none" stroke="#000000" points="46.5,-892.5 46.5,-922.5 503.5,-922.5 503.5,-892.5 46.5,-892.5"/>
<text text-anchor="start" x="53.5" y="-903.9" font-family="Arial" font-size="14.00" fill="#000000">ex_reserved_by </text>
<text text-anchor="start" x="156.9726" y="-903.9" font-family="Arial" font-size="14.00" fill="#666666">[uuid]</text>
<polygon fill="none" stroke="#000000" points="46.5,-862.5 46.5,-892.5 503.5,-892.5 503.5,-862.5 46.5,-862.5"/>
<text text-anchor="start" x="53.5" y="-873.9" font-family="Arial" font-size="14.00" fill="#000000">ex_airway_id </text>
<text text-anchor="start" x="139.0666" y="-873.9" font-family="Arial" font-size="14.00" fill="#666666">[uuid]</text>
<polygon fill="none" stroke="#000000" points="46.5,-832.5 46.5,-862.5 503.5,-862.5 503.5,-832.5 46.5,-832.5"/>
<text text-anchor="start" x="53.5" y="-843.9" font-family="Arial" font-size="14.00" fill="#000000">airspace_id </text>
<text text-anchor="start" x="128.96" y="-843.9" font-family="Arial" font-size="14.00" fill="#666666">[uuid]</text>
<polygon fill="none" stroke="#000000" points="46.5,-802.5 46.5,-832.5 503.5,-832.5 503.5,-802.5 46.5,-802.5"/>
<text text-anchor="start" x="53.5" y="-813.9" font-family="Arial" font-size="14.00" fill="#000000">plan_id </text>
<text text-anchor="start" x="102.5168" y="-813.9" font-family="Arial" font-size="14.00" fill="#666666">[uuid]</text>
<polygon fill="none" stroke="#000000" points="46.5,-772.5 46.5,-802.5 503.5,-802.5 503.5,-772.5 46.5,-772.5"/>
<text text-anchor="start" x="53.5" y="-783.9" font-family="Arial" font-size="14.00" fill="#000000">operation_id </text>
<text text-anchor="start" x="134.4158" y="-783.9" font-family="Arial" font-size="14.00" fill="#666666">[uuid]</text>
<polygon fill="none" stroke="#000000" points="46.5,-742.5 46.5,-772.5 503.5,-772.5 503.5,-742.5 46.5,-742.5"/>
<text text-anchor="start" x="53.5" y="-753.9" font-family="Arial" font-size="14.00" fill="#000000">status </text>
<text text-anchor="start" x="94.737" y="-753.9" font-family="Arial" font-size="14.00" fill="#666666">[airway_reservation_status]</text>
<polygon fill="none" stroke="#000000" points="46.5,-712.5 46.5,-742.5 503.5,-742.5 503.5,-712.5 46.5,-712.5"/>
<text text-anchor="start" x="53.5" y="-723.9" font-family="Arial" font-size="14.00" fill="#000000">created_at </text>
<text text-anchor="start" x="123.528" y="-723.9" font-family="Arial" font-size="14.00" fill="#666666">[timestamp(0) with time zone]</text>
<polygon fill="none" stroke="#000000" points="46.5,-682.5 46.5,-712.5 503.5,-712.5 503.5,-682.5 46.5,-682.5"/>
<text text-anchor="start" x="53.5" y="-693.9" font-family="Arial" font-size="14.00" fill="#000000">updated_at </text>
<text text-anchor="start" x="127.4326" y="-693.9" font-family="Arial" font-size="14.00" fill="#666666">[timestamp(0) with time zone]</text>
<polygon fill="none" stroke="#000000" stroke-width="3" points="44.5,-681.5 44.5,-1079.5 504.5,-1079.5 504.5,-681.5 44.5,-681.5"/>
</g>
<!-- airway_reservation.airspaces -->
<g id="node2" class="node">
<title>airway_reservation.airspaces</title>
<polygon fill="#efefef" stroke="transparent" points="88.5,-522.5 88.5,-557.5 462.5,-557.5 462.5,-522.5 88.5,-522.5"/>
<polygon fill="none" stroke="#000000" points="88.5,-522.5 88.5,-557.5 462.5,-557.5 462.5,-522.5 88.5,-522.5"/>
<text text-anchor="start" x="95.2038" y="-535.3" font-family="Arial Bold" font-size="18.00" fill="#000000">airway_reservation.airspaces</text>
<text text-anchor="start" x="328.2282" y="-535.3" font-family="Arial" font-size="14.00" fill="#000000">    </text>
<text text-anchor="start" x="362.433" y="-535.3" font-family="Arial" font-size="14.00" fill="#666666">[BASE TABLE]</text>
<polygon fill="none" stroke="#000000" points="88.5,-492.5 88.5,-522.5 462.5,-522.5 462.5,-492.5 88.5,-492.5"/>
<text text-anchor="start" x="95.5" y="-503.9" font-family="Arial" font-size="14.00" fill="#000000">id    </text>
<text text-anchor="start" x="140.594" y="-503.9" font-family="Arial" font-size="14.00" fill="#666666">[uuid]</text>
<polygon fill="none" stroke="#000000" points="88.5,-462.5 88.5,-492.5 462.5,-492.5 462.5,-462.5 88.5,-462.5"/>
<text text-anchor="start" x="95.5" y="-473.9" font-family="Arial" font-size="14.00" fill="#000000">organization_id    </text>
<text text-anchor="start" x="224.6192" y="-473.9" font-family="Arial" font-size="14.00" fill="#666666">[uuid]</text>
<polygon fill="none" stroke="#000000" points="88.5,-432.5 88.5,-462.5 462.5,-462.5 462.5,-432.5 88.5,-432.5"/>
<text text-anchor="start" x="95.5" y="-443.9" font-family="Arial" font-size="14.00" fill="#000000">project_id    </text>
<text text-anchor="start" x="190.3822" y="-443.9" font-family="Arial" font-size="14.00" fill="#666666">[uuid]</text>
<polygon fill="none" stroke="#000000" points="88.5,-402.5 88.5,-432.5 462.5,-432.5 462.5,-402.5 88.5,-402.5"/>
<text text-anchor="start" x="95.5" y="-413.9" font-family="Arial" font-size="14.00" fill="#000000">type    </text>
<text text-anchor="start" x="156.1606" y="-413.9" font-family="Arial" font-size="14.00" fill="#666666">[airspace_type]</text>
<polygon fill="none" stroke="#000000" points="88.5,-372.5 88.5,-402.5 462.5,-402.5 462.5,-372.5 88.5,-372.5"/>
<text text-anchor="start" x="95.5" y="-383.9" font-family="Arial" font-size="14.00" fill="#000000">class    </text>
<text text-anchor="start" x="161.594" y="-383.9" font-family="Arial" font-size="14.00" fill="#666666">[airspace_class]</text>
<polygon fill="none" stroke="#000000" points="88.5,-342.5 88.5,-372.5 462.5,-372.5 462.5,-342.5 88.5,-342.5"/>
<text text-anchor="start" x="95.5" y="-353.9" font-family="Arial" font-size="14.00" fill="#000000">volume    </text>
<text text-anchor="start" x="174.8198" y="-353.9" font-family="Arial" font-size="14.00" fill="#666666">[geometry]</text>
<polygon fill="none" stroke="#000000" points="88.5,-312.5 88.5,-342.5 462.5,-342.5 462.5,-312.5 88.5,-312.5"/>
<text text-anchor="start" x="95.5" y="-323.9" font-family="Arial" font-size="14.00" fill="#000000">shape    </text>
<text text-anchor="start" x="167.8352" y="-323.9" font-family="Arial" font-size="14.00" fill="#666666">[op_shape]</text>
<polygon fill="none" stroke="#000000" points="88.5,-282.5 88.5,-312.5 462.5,-312.5 462.5,-282.5 88.5,-282.5"/>
<text text-anchor="start" x="95.5" y="-293.9" font-family="Arial" font-size="14.00" fill="#000000">max_height    </text>
<text text-anchor="start" x="202.0582" y="-293.9" font-family="Arial" font-size="14.00" fill="#666666">[numeric(8,2)]</text>
<polygon fill="none" stroke="#000000" points="88.5,-252.5 88.5,-282.5 462.5,-282.5 462.5,-252.5 88.5,-252.5"/>
<text text-anchor="start" x="95.5" y="-263.9" font-family="Arial" font-size="14.00" fill="#000000">min_height    </text>
<text text-anchor="start" x="198.1648" y="-263.9" font-family="Arial" font-size="14.00" fill="#666666">[numeric(8,2)]</text>
<polygon fill="none" stroke="#000000" points="88.5,-222.5 88.5,-252.5 462.5,-252.5 462.5,-222.5 88.5,-222.5"/>
<text text-anchor="start" x="95.5" y="-233.9" font-family="Arial" font-size="14.00" fill="#000000">radius    </text>
<text text-anchor="start" x="167.8198" y="-233.9" font-family="Arial" font-size="14.00" fill="#666666">[numeric(8,2)]</text>
<polygon fill="none" stroke="#000000" points="88.5,-192.5 88.5,-222.5 462.5,-222.5 462.5,-192.5 88.5,-192.5"/>
<text text-anchor="start" x="95.5" y="-203.9" font-family="Arial" font-size="14.00" fill="#000000">file    </text>
<text text-anchor="start" x="147.5912" y="-203.9" font-family="Arial" font-size="14.00" fill="#666666">[varchar(255)]</text>
<polygon fill="none" stroke="#000000" points="88.5,-162.5 88.5,-192.5 462.5,-192.5 462.5,-162.5 88.5,-162.5"/>
<text text-anchor="start" x="95.5" y="-173.9" font-family="Arial" font-size="14.00" fill="#000000">properties    </text>
<text text-anchor="start" x="191.9362" y="-173.9" font-family="Arial" font-size="14.00" fill="#666666">[jsonb]</text>
<polygon fill="none" stroke="#000000" points="88.5,-132.5 88.5,-162.5 462.5,-162.5 462.5,-132.5 88.5,-132.5"/>
<text text-anchor="start" x="95.5" y="-143.9" font-family="Arial" font-size="14.00" fill="#000000">valid_from    </text>
<text text-anchor="start" x="194.2602" y="-143.9" font-family="Arial" font-size="14.00" fill="#666666">[timestamp(0) with time zone]</text>
<polygon fill="none" stroke="#000000" points="88.5,-102.5 88.5,-132.5 462.5,-132.5 462.5,-102.5 88.5,-102.5"/>
<text text-anchor="start" x="95.5" y="-113.9" font-family="Arial" font-size="14.00" fill="#000000">valid_to    </text>
<text text-anchor="start" x="177.939" y="-113.9" font-family="Arial" font-size="14.00" fill="#666666">[timestamp(0) with time zone]</text>
<polygon fill="none" stroke="#000000" points="88.5,-72.5 88.5,-102.5 462.5,-102.5 462.5,-72.5 88.5,-72.5"/>
<text text-anchor="start" x="95.5" y="-83.9" font-family="Arial" font-size="14.00" fill="#000000">created_at    </text>
<text text-anchor="start" x="195.8422" y="-83.9" font-family="Arial" font-size="14.00" fill="#666666">[timestamp(0) with time zone]</text>
<polygon fill="none" stroke="#000000" points="88.5,-42.5 88.5,-72.5 462.5,-72.5 462.5,-42.5 88.5,-42.5"/>
<text text-anchor="start" x="95.5" y="-53.9" font-family="Arial" font-size="14.00" fill="#000000">updated_at    </text>
<text text-anchor="start" x="199.7468" y="-53.9" font-family="Arial" font-size="14.00" fill="#666666">[timestamp(0) with time zone]</text>
</g>
<!-- airway_reservation.airway_reservations&#45;&gt;airway_reservation.airspaces -->
<g id="edge1" class="edge">
<title>airway_reservation.airway_reservations:airspace_id&#45;&gt;airway_reservation.airspaces:id</title>
<path fill="none" stroke="#000000" d="M513.9019,-846.8648C594.6362,-836.5524 564.2607,-703.2596 503.5,-637 440.9365,-568.7743 151.0635,-669.2257 88.5,-601 60.4142,-570.3724 46.9444,-507.5 88.5,-507.5"/>
<polygon fill="#000000" stroke="#000000" points="513.4814,-846.8904 503.2257,-843.0084 508.4907,-847.1952 503.5,-847.5 503.5,-847.5 503.5,-847.5 508.4907,-847.1952 503.7743,-851.9916 513.4814,-846.8904 513.4814,-846.8904"/>
<text text-anchor="start" x="510.1605" y="-857.5" font-family="Arial" font-size="10.00" fill="#000000">FOREIGN KEY (airspace_id) REFERENCES airway_reservation.airspaces(id)</text>
</g>
</g>
</svg>
