<?xml version="1.0" encoding="UTF-8" standalone="no"?>
<!DOCTYPE svg PUBLIC "-//W3C//DTD SVG 1.1//EN"
 "http://www.w3.org/Graphics/SVG/1.1/DTD/svg11.dtd">
<!-- Generated by graphviz version 2.40.1 (20161225.0304)
 -->
<!-- Title: airway_reservation.airspaces Pages: 1 -->
<svg width="869pt" height="1132pt"
 viewBox="0.00 0.00 868.50 1132.00" xmlns="http://www.w3.org/2000/svg" xmlns:xlink="http://www.w3.org/1999/xlink">
<g id="graph0" class="graph" transform="scale(1 1) rotate(0) translate(4 1128)">
<title>airway_reservation.airspaces</title>
<polygon fill="#ffffff" stroke="transparent" points="-4,4 -4,-1128 864.5,-1128 864.5,4 -4,4"/>
<!-- airway_reservation.airspaces -->
<g id="node1" class="node">
<title>airway_reservation.airspaces</title>
<polygon fill="#efefef" stroke="transparent" points="85.5,-525.5 85.5,-560.5 459.5,-560.5 459.5,-525.5 85.5,-525.5"/>
<polygon fill="none" stroke="#000000" points="85.5,-525.5 85.5,-560.5 459.5,-560.5 459.5,-525.5 85.5,-525.5"/>
<text text-anchor="start" x="92.2038" y="-538.3" font-family="Arial Bold" font-size="18.00" fill="#000000">airway_reservation.airspaces</text>
<text text-anchor="start" x="325.2282" y="-538.3" font-family="Arial" font-size="14.00" fill="#000000">    </text>
<text text-anchor="start" x="359.433" y="-538.3" font-family="Arial" font-size="14.00" fill="#666666">[BASE TABLE]</text>
<polygon fill="none" stroke="#000000" points="85.5,-495.5 85.5,-525.5 459.5,-525.5 459.5,-495.5 85.5,-495.5"/>
<text text-anchor="start" x="92.5" y="-506.9" font-family="Arial" font-size="14.00" fill="#000000">id </text>
<text text-anchor="start" x="107.2798" y="-506.9" font-family="Arial" font-size="14.00" fill="#666666">[uuid]</text>
<polygon fill="none" stroke="#000000" points="85.5,-465.5 85.5,-495.5 459.5,-495.5 459.5,-465.5 85.5,-465.5"/>
<text text-anchor="start" x="92.5" y="-476.9" font-family="Arial" font-size="14.00" fill="#000000">organization_id </text>
<text text-anchor="start" x="191.305" y="-476.9" font-family="Arial" font-size="14.00" fill="#666666">[uuid]</text>
<polygon fill="none" stroke="#000000" points="85.5,-435.5 85.5,-465.5 459.5,-465.5 459.5,-435.5 85.5,-435.5"/>
<text text-anchor="start" x="92.5" y="-446.9" font-family="Arial" font-size="14.00" fill="#000000">project_id </text>
<text text-anchor="start" x="157.068" y="-446.9" font-family="Arial" font-size="14.00" fill="#666666">[uuid]</text>
<polygon fill="none" stroke="#000000" points="85.5,-405.5 85.5,-435.5 459.5,-435.5 459.5,-405.5 85.5,-405.5"/>
<text text-anchor="start" x="92.5" y="-416.9" font-family="Arial" font-size="14.00" fill="#000000">type </text>
<text text-anchor="start" x="122.8464" y="-416.9" font-family="Arial" font-size="14.00" fill="#666666">[airspace_type]</text>
<polygon fill="none" stroke="#000000" points="85.5,-375.5 85.5,-405.5 459.5,-405.5 459.5,-375.5 85.5,-375.5"/>
<text text-anchor="start" x="92.5" y="-386.9" font-family="Arial" font-size="14.00" fill="#000000">class </text>
<text text-anchor="start" x="128.2798" y="-386.9" font-family="Arial" font-size="14.00" fill="#666666">[airspace_class]</text>
<polygon fill="none" stroke="#000000" points="85.5,-345.5 85.5,-375.5 459.5,-375.5 459.5,-345.5 85.5,-345.5"/>
<text text-anchor="start" x="92.5" y="-356.9" font-family="Arial" font-size="14.00" fill="#000000">volume </text>
<text text-anchor="start" x="141.5056" y="-356.9" font-family="Arial" font-size="14.00" fill="#666666">[geometry]</text>
<polygon fill="none" stroke="#000000" points="85.5,-315.5 85.5,-345.5 459.5,-345.5 459.5,-315.5 85.5,-315.5"/>
<text text-anchor="start" x="92.5" y="-326.9" font-family="Arial" font-size="14.00" fill="#000000">shape </text>
<text text-anchor="start" x="134.521" y="-326.9" font-family="Arial" font-size="14.00" fill="#666666">[op_shape]</text>
<polygon fill="none" stroke="#000000" points="85.5,-285.5 85.5,-315.5 459.5,-315.5 459.5,-285.5 85.5,-285.5"/>
<text text-anchor="start" x="92.5" y="-296.9" font-family="Arial" font-size="14.00" fill="#000000">max_height </text>
<text text-anchor="start" x="168.744" y="-296.9" font-family="Arial" font-size="14.00" fill="#666666">[numeric(8,2)]</text>
<polygon fill="none" stroke="#000000" points="85.5,-255.5 85.5,-285.5 459.5,-285.5 459.5,-255.5 85.5,-255.5"/>
<text text-anchor="start" x="92.5" y="-266.9" font-family="Arial" font-size="14.00" fill="#000000">min_height </text>
<text text-anchor="start" x="164.8506" y="-266.9" font-family="Arial" font-size="14.00" fill="#666666">[numeric(8,2)]</text>
<polygon fill="none" stroke="#000000" points="85.5,-225.5 85.5,-255.5 459.5,-255.5 459.5,-225.5 85.5,-225.5"/>
<text text-anchor="start" x="92.5" y="-236.9" font-family="Arial" font-size="14.00" fill="#000000">radius </text>
<text text-anchor="start" x="134.5056" y="-236.9" font-family="Arial" font-size="14.00" fill="#666666">[numeric(8,2)]</text>
<polygon fill="none" stroke="#000000" points="85.5,-195.5 85.5,-225.5 459.5,-225.5 459.5,-195.5 85.5,-195.5"/>
<text text-anchor="start" x="92.5" y="-206.9" font-family="Arial" font-size="14.00" fill="#000000">file </text>
<text text-anchor="start" x="114.277" y="-206.9" font-family="Arial" font-size="14.00" fill="#666666">[varchar(255)]</text>
<polygon fill="none" stroke="#000000" points="85.5,-165.5 85.5,-195.5 459.5,-195.5 459.5,-165.5 85.5,-165.5"/>
<text text-anchor="start" x="92.5" y="-176.9" font-family="Arial" font-size="14.00" fill="#000000">properties </text>
<text text-anchor="start" x="158.622" y="-176.9" font-family="Arial" font-size="14.00" fill="#666666">[jsonb]</text>
<polygon fill="none" stroke="#000000" points="85.5,-135.5 85.5,-165.5 459.5,-165.5 459.5,-135.5 85.5,-135.5"/>
<text text-anchor="start" x="92.5" y="-146.9" font-family="Arial" font-size="14.00" fill="#000000">valid_from </text>
<text text-anchor="start" x="160.946" y="-146.9" font-family="Arial" font-size="14.00" fill="#666666">[timestamp(0) with time zone]</text>
<polygon fill="none" stroke="#000000" points="85.5,-105.5 85.5,-135.5 459.5,-135.5 459.5,-105.5 85.5,-105.5"/>
<text text-anchor="start" x="92.5" y="-116.9" font-family="Arial" font-size="14.00" fill="#000000">valid_to </text>
<text text-anchor="start" x="144.6248" y="-116.9" font-family="Arial" font-size="14.00" fill="#666666">[timestamp(0) with time zone]</text>
<polygon fill="none" stroke="#000000" points="85.5,-75.5 85.5,-105.5 459.5,-105.5 459.5,-75.5 85.5,-75.5"/>
<text text-anchor="start" x="92.5" y="-86.9" font-family="Arial" font-size="14.00" fill="#000000">created_at </text>
<text text-anchor="start" x="162.528" y="-86.9" font-family="Arial" font-size="14.00" fill="#666666">[timestamp(0) with time zone]</text>
<polygon fill="none" stroke="#000000" points="85.5,-45.5 85.5,-75.5 459.5,-75.5 459.5,-45.5 85.5,-45.5"/>
<text text-anchor="start" x="92.5" y="-56.9" font-family="Arial" font-size="14.00" fill="#000000">updated_at </text>
<text text-anchor="start" x="166.4326" y="-56.9" font-family="Arial" font-size="14.00" fill="#666666">[timestamp(0) with time zone]</text>
<polygon fill="none" stroke="#000000" stroke-width="3" points="84,-44.5 84,-562.5 461,-562.5 461,-44.5 84,-44.5"/>
</g>
<!-- airway_reservation.airway_reservations -->
<g id="node2" class="node">
<title>airway_reservation.airway_reservations</title>
<polygon fill="#efefef" stroke="transparent" points="43.5,-1045.5 43.5,-1080.5 500.5,-1080.5 500.5,-1045.5 43.5,-1045.5"/>
<polygon fill="none" stroke="#000000" points="43.5,-1045.5 43.5,-1080.5 500.5,-1080.5 500.5,-1045.5 43.5,-1045.5"/>
<text text-anchor="start" x="50.2039" y="-1058.3" font-family="Arial Bold" font-size="18.00" fill="#000000">airway_reservation.airway_reservations</text>
<text text-anchor="start" x="366.2281" y="-1058.3" font-family="Arial" font-size="14.00" fill="#000000">    </text>
<text text-anchor="start" x="400.4329" y="-1058.3" font-family="Arial" font-size="14.00" fill="#666666">[BASE TABLE]</text>
<polygon fill="none" stroke="#000000" points="43.5,-1015.5 43.5,-1045.5 500.5,-1045.5 500.5,-1015.5 43.5,-1015.5"/>
<text text-anchor="start" x="50.5" y="-1026.9" font-family="Arial" font-size="14.00" fill="#000000">id    </text>
<text text-anchor="start" x="95.594" y="-1026.9" font-family="Arial" font-size="14.00" fill="#666666">[uuid]</text>
<polygon fill="none" stroke="#000000" points="43.5,-985.5 43.5,-1015.5 500.5,-1015.5 500.5,-985.5 43.5,-985.5"/>
<text text-anchor="start" x="50.5" y="-996.9" font-family="Arial" font-size="14.00" fill="#000000">ex_airway_sections    </text>
<text text-anchor="start" x="206.8366" y="-996.9" font-family="Arial" font-size="14.00" fill="#666666">[jsonb]</text>
<polygon fill="none" stroke="#000000" points="43.5,-955.5 43.5,-985.5 500.5,-985.5 500.5,-955.5 43.5,-955.5"/>
<text text-anchor="start" x="50.5" y="-966.9" font-family="Arial" font-size="14.00" fill="#000000">accepted_at    </text>
<text text-anchor="start" x="160.9642" y="-966.9" font-family="Arial" font-size="14.00" fill="#666666">[timestamp(0) with time zone]</text>
<polygon fill="none" stroke="#000000" points="43.5,-925.5 43.5,-955.5 500.5,-955.5 500.5,-925.5 43.5,-925.5"/>
<text text-anchor="start" x="50.5" y="-936.9" font-family="Arial" font-size="14.00" fill="#000000">reserved_by    </text>
<text text-anchor="start" x="161.7216" y="-936.9" font-family="Arial" font-size="14.00" fill="#666666">[uuid]</text>
<polygon fill="none" stroke="#000000" points="43.5,-895.5 43.5,-925.5 500.5,-925.5 500.5,-895.5 43.5,-895.5"/>
<text text-anchor="start" x="50.5" y="-906.9" font-family="Arial" font-size="14.00" fill="#000000">ex_reserved_by    </text>
<text text-anchor="start" x="184.2868" y="-906.9" font-family="Arial" font-size="14.00" fill="#666666">[uuid]</text>
<polygon fill="none" stroke="#000000" points="43.5,-865.5 43.5,-895.5 500.5,-895.5 500.5,-865.5 43.5,-865.5"/>
<text text-anchor="start" x="50.5" y="-876.9" font-family="Arial" font-size="14.00" fill="#000000">ex_airway_id    </text>
<text text-anchor="start" x="166.3808" y="-876.9" font-family="Arial" font-size="14.00" fill="#666666">[uuid]</text>
<polygon fill="none" stroke="#000000" points="43.5,-835.5 43.5,-865.5 500.5,-865.5 500.5,-835.5 43.5,-835.5"/>
<text text-anchor="start" x="50.5" y="-846.9" font-family="Arial" font-size="14.00" fill="#000000">airspace_id    </text>
<text text-anchor="start" x="156.2742" y="-846.9" font-family="Arial" font-size="14.00" fill="#666666">[uuid]</text>
<polygon fill="none" stroke="#000000" points="43.5,-805.5 43.5,-835.5 500.5,-835.5 500.5,-805.5 43.5,-805.5"/>
<text text-anchor="start" x="50.5" y="-816.9" font-family="Arial" font-size="14.00" fill="#000000">plan_id    </text>
<text text-anchor="start" x="129.831" y="-816.9" font-family="Arial" font-size="14.00" fill="#666666">[uuid]</text>
<polygon fill="none" stroke="#000000" points="43.5,-775.5 43.5,-805.5 500.5,-805.5 500.5,-775.5 43.5,-775.5"/>
<text text-anchor="start" x="50.5" y="-786.9" font-family="Arial" font-size="14.00" fill="#000000">operation_id    </text>
<text text-anchor="start" x="161.73" y="-786.9" font-family="Arial" font-size="14.00" fill="#666666">[uuid]</text>
<polygon fill="none" stroke="#000000" points="43.5,-745.5 43.5,-775.5 500.5,-775.5 500.5,-745.5 43.5,-745.5"/>
<text text-anchor="start" x="50.5" y="-756.9" font-family="Arial" font-size="14.00" fill="#000000">status    </text>
<text text-anchor="start" x="122.0512" y="-756.9" font-family="Arial" font-size="14.00" fill="#666666">[airway_reservation_status]</text>
<polygon fill="none" stroke="#000000" points="43.5,-715.5 43.5,-745.5 500.5,-745.5 500.5,-715.5 43.5,-715.5"/>
<text text-anchor="start" x="50.5" y="-726.9" font-family="Arial" font-size="14.00" fill="#000000">created_at    </text>
<text text-anchor="start" x="150.8422" y="-726.9" font-family="Arial" font-size="14.00" fill="#666666">[timestamp(0) with time zone]</text>
<polygon fill="none" stroke="#000000" points="43.5,-685.5 43.5,-715.5 500.5,-715.5 500.5,-685.5 43.5,-685.5"/>
<text text-anchor="start" x="50.5" y="-696.9" font-family="Arial" font-size="14.00" fill="#000000">updated_at    </text>
<text text-anchor="start" x="154.7468" y="-696.9" font-family="Arial" font-size="14.00" fill="#666666">[timestamp(0) with time zone]</text>
</g>
<!-- airway_reservation.airway_reservations&#45;&gt;airway_reservation.airspaces -->
<g id="edge1" class="edge">
<title>airway_reservation.airway_reservations:airspace_id&#45;&gt;airway_reservation.airspaces:id</title>
<path fill="none" stroke="#000000" d="M510.7536,-849.8739C590.3374,-839.7084 560.3947,-708.3153 500.5,-643 437.9365,-574.7743 148.0635,-675.2257 85.5,-607 56.5131,-575.3897 42.6111,-510.5 85.5,-510.5"/>
<polygon fill="#000000" stroke="#000000" points="510.4814,-849.8904 500.2257,-846.0084 505.4907,-850.1952 500.5,-850.5 500.5,-850.5 500.5,-850.5 505.4907,-850.1952 500.7743,-854.9916 510.4814,-849.8904 510.4814,-849.8904"/>
<text text-anchor="start" x="507.1605" y="-860.5" font-family="Arial" font-size="10.00" fill="#000000">FOREIGN KEY (airspace_id) REFERENCES airway_reservation.airspaces(id)</text>
</g>
</g>
</svg>
