<?xml version="1.0" encoding="UTF-8" standalone="no"?>
<!DOCTYPE svg PUBLIC "-//W3C//DTD SVG 1.1//EN"
 "http://www.w3.org/Graphics/SVG/1.1/DTD/svg11.dtd">
<!-- Generated by graphviz version 2.40.1 (20161225.0304)
 -->
<!-- Title: DBドキュメント Pages: 1 -->
<svg width="1353pt" height="1126pt"
 viewBox="0.00 0.00 1353.00 1126.00" xmlns="http://www.w3.org/2000/svg" xmlns:xlink="http://www.w3.org/1999/xlink">
<g id="graph0" class="graph" transform="scale(1 1) rotate(0) translate(4 1122)">
<title>DBドキュメント</title>
<polygon fill="#ffffff" stroke="transparent" points="-4,4 -4,-1122 1349,-1122 1349,4 -4,4"/>
<!-- airway_reservation.migrations -->
<g id="node1" class="node">
<title>airway_reservation.migrations</title>
<polygon fill="#efefef" stroke="transparent" points="43,-889.5 43,-924.5 423,-924.5 423,-889.5 43,-889.5"/>
<polygon fill="none" stroke="#000000" points="43,-889.5 43,-924.5 423,-924.5 423,-889.5 43,-889.5"/>
<text text-anchor="start" x="49.7095" y="-902.3" font-family="Arial Bold" font-size="18.00" fill="#000000">airway_reservation.migrations</text>
<text text-anchor="start" x="288.7225" y="-902.3" font-family="Arial" font-size="14.00" fill="#000000">    </text>
<text text-anchor="start" x="322.9273" y="-902.3" font-family="Arial" font-size="14.00" fill="#666666">[BASE TABLE]</text>
<polygon fill="none" stroke="#000000" points="43,-859.5 43,-889.5 423,-889.5 423,-859.5 43,-859.5"/>
<text text-anchor="start" x="50" y="-870.9" font-family="Arial" font-size="14.00" fill="#000000">id    </text>
<text text-anchor="start" x="95.094" y="-870.9" font-family="Arial" font-size="14.00" fill="#666666">[text]</text>
<polygon fill="none" stroke="#000000" points="43,-829.5 43,-859.5 423,-859.5 423,-829.5 43,-829.5"/>
<text text-anchor="start" x="50" y="-840.9" font-family="Arial" font-size="14.00" fill="#000000">applied_at    </text>
<text text-anchor="start" x="148.7868" y="-840.9" font-family="Arial" font-size="14.00" fill="#666666">[timestamp with time zone]</text>
</g>
<!-- airway_reservation.airspaces -->
<g id="node2" class="node">
<title>airway_reservation.airspaces</title>
<polygon fill="#efefef" stroke="transparent" points="570,-522.5 570,-557.5 944,-557.5 944,-522.5 570,-522.5"/>
<polygon fill="none" stroke="#000000" points="570,-522.5 570,-557.5 944,-557.5 944,-522.5 570,-522.5"/>
<text text-anchor="start" x="576.7038" y="-535.3" font-family="Arial Bold" font-size="18.00" fill="#000000">airway_reservation.airspaces</text>
<text text-anchor="start" x="809.7282" y="-535.3" font-family="Arial" font-size="14.00" fill="#000000">    </text>
<text text-anchor="start" x="843.933" y="-535.3" font-family="Arial" font-size="14.00" fill="#666666">[BASE TABLE]</text>
<polygon fill="none" stroke="#000000" points="570,-492.5 570,-522.5 944,-522.5 944,-492.5 570,-492.5"/>
<text text-anchor="start" x="577" y="-503.9" font-family="Arial" font-size="14.00" fill="#000000">id    </text>
<text text-anchor="start" x="622.094" y="-503.9" font-family="Arial" font-size="14.00" fill="#666666">[uuid]</text>
<polygon fill="none" stroke="#000000" points="570,-462.5 570,-492.5 944,-492.5 944,-462.5 570,-462.5"/>
<text text-anchor="start" x="577" y="-473.9" font-family="Arial" font-size="14.00" fill="#000000">organization_id    </text>
<text text-anchor="start" x="706.1192" y="-473.9" font-family="Arial" font-size="14.00" fill="#666666">[uuid]</text>
<polygon fill="none" stroke="#000000" points="570,-432.5 570,-462.5 944,-462.5 944,-432.5 570,-432.5"/>
<text text-anchor="start" x="577" y="-443.9" font-family="Arial" font-size="14.00" fill="#000000">project_id    </text>
<text text-anchor="start" x="671.8822" y="-443.9" font-family="Arial" font-size="14.00" fill="#666666">[uuid]</text>
<polygon fill="none" stroke="#000000" points="570,-402.5 570,-432.5 944,-432.5 944,-402.5 570,-402.5"/>
<text text-anchor="start" x="577" y="-413.9" font-family="Arial" font-size="14.00" fill="#000000">type    </text>
<text text-anchor="start" x="637.6606" y="-413.9" font-family="Arial" font-size="14.00" fill="#666666">[airspace_type]</text>
<polygon fill="none" stroke="#000000" points="570,-372.5 570,-402.5 944,-402.5 944,-372.5 570,-372.5"/>
<text text-anchor="start" x="577" y="-383.9" font-family="Arial" font-size="14.00" fill="#000000">class    </text>
<text text-anchor="start" x="643.094" y="-383.9" font-family="Arial" font-size="14.00" fill="#666666">[airspace_class]</text>
<polygon fill="none" stroke="#000000" points="570,-342.5 570,-372.5 944,-372.5 944,-342.5 570,-342.5"/>
<text text-anchor="start" x="577" y="-353.9" font-family="Arial" font-size="14.00" fill="#000000">volume    </text>
<text text-anchor="start" x="656.3198" y="-353.9" font-family="Arial" font-size="14.00" fill="#666666">[geometry]</text>
<polygon fill="none" stroke="#000000" points="570,-312.5 570,-342.5 944,-342.5 944,-312.5 570,-312.5"/>
<text text-anchor="start" x="577" y="-323.9" font-family="Arial" font-size="14.00" fill="#000000">shape    </text>
<text text-anchor="start" x="649.3352" y="-323.9" font-family="Arial" font-size="14.00" fill="#666666">[op_shape]</text>
<polygon fill="none" stroke="#000000" points="570,-282.5 570,-312.5 944,-312.5 944,-282.5 570,-282.5"/>
<text text-anchor="start" x="577" y="-293.9" font-family="Arial" font-size="14.00" fill="#000000">max_height    </text>
<text text-anchor="start" x="683.5582" y="-293.9" font-family="Arial" font-size="14.00" fill="#666666">[numeric(8,2)]</text>
<polygon fill="none" stroke="#000000" points="570,-252.5 570,-282.5 944,-282.5 944,-252.5 570,-252.5"/>
<text text-anchor="start" x="577" y="-263.9" font-family="Arial" font-size="14.00" fill="#000000">min_height    </text>
<text text-anchor="start" x="679.6648" y="-263.9" font-family="Arial" font-size="14.00" fill="#666666">[numeric(8,2)]</text>
<polygon fill="none" stroke="#000000" points="570,-222.5 570,-252.5 944,-252.5 944,-222.5 570,-222.5"/>
<text text-anchor="start" x="577" y="-233.9" font-family="Arial" font-size="14.00" fill="#000000">radius    </text>
<text text-anchor="start" x="649.3198" y="-233.9" font-family="Arial" font-size="14.00" fill="#666666">[numeric(8,2)]</text>
<polygon fill="none" stroke="#000000" points="570,-192.5 570,-222.5 944,-222.5 944,-192.5 570,-192.5"/>
<text text-anchor="start" x="577" y="-203.9" font-family="Arial" font-size="14.00" fill="#000000">file    </text>
<text text-anchor="start" x="629.0912" y="-203.9" font-family="Arial" font-size="14.00" fill="#666666">[varchar(255)]</text>
<polygon fill="none" stroke="#000000" points="570,-162.5 570,-192.5 944,-192.5 944,-162.5 570,-162.5"/>
<text text-anchor="start" x="577" y="-173.9" font-family="Arial" font-size="14.00" fill="#000000">properties    </text>
<text text-anchor="start" x="673.4362" y="-173.9" font-family="Arial" font-size="14.00" fill="#666666">[jsonb]</text>
<polygon fill="none" stroke="#000000" points="570,-132.5 570,-162.5 944,-162.5 944,-132.5 570,-132.5"/>
<text text-anchor="start" x="577" y="-143.9" font-family="Arial" font-size="14.00" fill="#000000">valid_from    </text>
<text text-anchor="start" x="675.7602" y="-143.9" font-family="Arial" font-size="14.00" fill="#666666">[timestamp(0) with time zone]</text>
<polygon fill="none" stroke="#000000" points="570,-102.5 570,-132.5 944,-132.5 944,-102.5 570,-102.5"/>
<text text-anchor="start" x="577" y="-113.9" font-family="Arial" font-size="14.00" fill="#000000">valid_to    </text>
<text text-anchor="start" x="659.439" y="-113.9" font-family="Arial" font-size="14.00" fill="#666666">[timestamp(0) with time zone]</text>
<polygon fill="none" stroke="#000000" points="570,-72.5 570,-102.5 944,-102.5 944,-72.5 570,-72.5"/>
<text text-anchor="start" x="577" y="-83.9" font-family="Arial" font-size="14.00" fill="#000000">created_at    </text>
<text text-anchor="start" x="677.3422" y="-83.9" font-family="Arial" font-size="14.00" fill="#666666">[timestamp(0) with time zone]</text>
<polygon fill="none" stroke="#000000" points="570,-42.5 570,-72.5 944,-72.5 944,-42.5 570,-42.5"/>
<text text-anchor="start" x="577" y="-53.9" font-family="Arial" font-size="14.00" fill="#000000">updated_at    </text>
<text text-anchor="start" x="681.2468" y="-53.9" font-family="Arial" font-size="14.00" fill="#666666">[timestamp(0) with time zone]</text>
</g>
<!-- airway_reservation.airway_reservations -->
<g id="node3" class="node">
<title>airway_reservation.airway_reservations</title>
<polygon fill="#efefef" stroke="transparent" points="528,-1039.5 528,-1074.5 985,-1074.5 985,-1039.5 528,-1039.5"/>
<polygon fill="none" stroke="#000000" points="528,-1039.5 528,-1074.5 985,-1074.5 985,-1039.5 528,-1039.5"/>
<text text-anchor="start" x="534.7039" y="-1052.3" font-family="Arial Bold" font-size="18.00" fill="#000000">airway_reservation.airway_reservations</text>
<text text-anchor="start" x="850.7281" y="-1052.3" font-family="Arial" font-size="14.00" fill="#000000">    </text>
<text text-anchor="start" x="884.9329" y="-1052.3" font-family="Arial" font-size="14.00" fill="#666666">[BASE TABLE]</text>
<polygon fill="none" stroke="#000000" points="528,-1009.5 528,-1039.5 985,-1039.5 985,-1009.5 528,-1009.5"/>
<text text-anchor="start" x="535" y="-1020.9" font-family="Arial" font-size="14.00" fill="#000000">id    </text>
<text text-anchor="start" x="580.094" y="-1020.9" font-family="Arial" font-size="14.00" fill="#666666">[uuid]</text>
<polygon fill="none" stroke="#000000" points="528,-979.5 528,-1009.5 985,-1009.5 985,-979.5 528,-979.5"/>
<text text-anchor="start" x="535" y="-990.9" font-family="Arial" font-size="14.00" fill="#000000">ex_airway_sections    </text>
<text text-anchor="start" x="691.3366" y="-990.9" font-family="Arial" font-size="14.00" fill="#666666">[jsonb]</text>
<polygon fill="none" stroke="#000000" points="528,-949.5 528,-979.5 985,-979.5 985,-949.5 528,-949.5"/>
<text text-anchor="start" x="535" y="-960.9" font-family="Arial" font-size="14.00" fill="#000000">accepted_at    </text>
<text text-anchor="start" x="645.4642" y="-960.9" font-family="Arial" font-size="14.00" fill="#666666">[timestamp(0) with time zone]</text>
<polygon fill="none" stroke="#000000" points="528,-919.5 528,-949.5 985,-949.5 985,-919.5 528,-919.5"/>
<text text-anchor="start" x="535" y="-930.9" font-family="Arial" font-size="14.00" fill="#000000">reserved_by    </text>
<text text-anchor="start" x="646.2216" y="-930.9" font-family="Arial" font-size="14.00" fill="#666666">[uuid]</text>
<polygon fill="none" stroke="#000000" points="528,-889.5 528,-919.5 985,-919.5 985,-889.5 528,-889.5"/>
<text text-anchor="start" x="535" y="-900.9" font-family="Arial" font-size="14.00" fill="#000000">ex_reserved_by    </text>
<text text-anchor="start" x="668.7868" y="-900.9" font-family="Arial" font-size="14.00" fill="#666666">[uuid]</text>
<polygon fill="none" stroke="#000000" points="528,-859.5 528,-889.5 985,-889.5 985,-859.5 528,-859.5"/>
<text text-anchor="start" x="535" y="-870.9" font-family="Arial" font-size="14.00" fill="#000000">ex_airway_id    </text>
<text text-anchor="start" x="650.8808" y="-870.9" font-family="Arial" font-size="14.00" fill="#666666">[uuid]</text>
<polygon fill="none" stroke="#000000" points="528,-829.5 528,-859.5 985,-859.5 985,-829.5 528,-829.5"/>
<text text-anchor="start" x="535" y="-840.9" font-family="Arial" font-size="14.00" fill="#000000">airspace_id    </text>
<text text-anchor="start" x="640.7742" y="-840.9" font-family="Arial" font-size="14.00" fill="#666666">[uuid]</text>
<polygon fill="none" stroke="#000000" points="528,-799.5 528,-829.5 985,-829.5 985,-799.5 528,-799.5"/>
<text text-anchor="start" x="535" y="-810.9" font-family="Arial" font-size="14.00" fill="#000000">plan_id    </text>
<text text-anchor="start" x="614.331" y="-810.9" font-family="Arial" font-size="14.00" fill="#666666">[uuid]</text>
<polygon fill="none" stroke="#000000" points="528,-769.5 528,-799.5 985,-799.5 985,-769.5 528,-769.5"/>
<text text-anchor="start" x="535" y="-780.9" font-family="Arial" font-size="14.00" fill="#000000">operation_id    </text>
<text text-anchor="start" x="646.23" y="-780.9" font-family="Arial" font-size="14.00" fill="#666666">[uuid]</text>
<polygon fill="none" stroke="#000000" points="528,-739.5 528,-769.5 985,-769.5 985,-739.5 528,-739.5"/>
<text text-anchor="start" x="535" y="-750.9" font-family="Arial" font-size="14.00" fill="#000000">status    </text>
<text text-anchor="start" x="606.5512" y="-750.9" font-family="Arial" font-size="14.00" fill="#666666">[airway_reservation_status]</text>
<polygon fill="none" stroke="#000000" points="528,-709.5 528,-739.5 985,-739.5 985,-709.5 528,-709.5"/>
<text text-anchor="start" x="535" y="-720.9" font-family="Arial" font-size="14.00" fill="#000000">created_at    </text>
<text text-anchor="start" x="635.3422" y="-720.9" font-family="Arial" font-size="14.00" fill="#666666">[timestamp(0) with time zone]</text>
<polygon fill="none" stroke="#000000" points="528,-679.5 528,-709.5 985,-709.5 985,-679.5 528,-679.5"/>
<text text-anchor="start" x="535" y="-690.9" font-family="Arial" font-size="14.00" fill="#000000">updated_at    </text>
<text text-anchor="start" x="639.2468" y="-690.9" font-family="Arial" font-size="14.00" fill="#666666">[timestamp(0) with time zone]</text>
</g>
<!-- airway_reservation.airway_reservations&#45;&gt;airway_reservation.airspaces -->
<g id="edge1" class="edge">
<title>airway_reservation.airway_reservations:airspace_id&#45;&gt;airway_reservation.airspaces:id</title>
<path fill="none" stroke="#000000" d="M995.2536,-843.8739C1074.8374,-833.7084 1044.8947,-702.3153 985,-637 922.4365,-568.7743 632.5635,-669.2257 570,-601 541.9142,-570.3724 528.4444,-507.5 570,-507.5"/>
<polygon fill="#000000" stroke="#000000" points="994.9814,-843.8904 984.7257,-840.0084 989.9907,-844.1952 985,-844.5 985,-844.5 985,-844.5 989.9907,-844.1952 985.2743,-848.9916 994.9814,-843.8904 994.9814,-843.8904"/>
<text text-anchor="start" x="991.6605" y="-854.5" font-family="Arial" font-size="10.00" fill="#000000">FOREIGN KEY (airspace_id) REFERENCES airway_reservation.airspaces(id)</text>
</g>
</g>
</svg>
